<svg width="219" height="190" viewBox="0 0 219 190" fill="none" xmlns="http://www.w3.org/2000/svg">
<path d="M17.7568 65.3123C17.7568 31.4241 40.3179 0 71.2117 0C92.6506 0 108.559 14.0989 118.378 34.0995C128.197 14.1 144.106 0 165.545 0C196.442 0 219 31.4295 219 65.3123C219 137.845 118.378 189.405 118.378 189.405C118.378 189.405 50.5991 156.776 26.2983 103.252H86.3263L95.8676 86.2907L107.012 125.299L133.111 91.7432H165.73V79.9054H127.321L111.988 99.6201L99.4568 55.7633L79.4035 91.4142H21.7807C23.0354 95.4651 24.5552 99.4124 26.2983 103.252L0 103.251V91.4136L21.7807 91.4142C19.2154 83.133 17.7568 74.4192 17.7568 65.3123Z" fill="#1077D6"/>
</svg>
